<?xml version="1.0" encoding="utf-8"?>
<!-- Generator: Adobe Illustrator 25.1.0, SVG Export Plug-In . SVG Version: 6.00 Build 0)  -->
<svg version="1.1" id="Calque_1" xmlns="http://www.w3.org/2000/svg" xmlns:xlink="http://www.w3.org/1999/xlink" x="0px" y="0px"
	 viewBox="0 0 23 23" style="enable-background:new 0 0 23 23;" xml:space="preserve">
<style type="text/css">
	.st0{fill:#CDC3B3;}
</style>
<g>
	<path id="Rectangle_41" class="st0" d="M2,0h7c1.1,0,2,0.9,2,2v7c0,1.1-0.9,2-2,2H2c-1.1,0-2-0.9-2-2V2C0,0.9,0.9,0,2,0z"/>
	<path id="Rectangle_44" class="st0" d="M14,0h7c1.1,0,2,0.9,2,2v7c0,1.1-0.9,2-2,2h-7c-1.1,0-2-0.9-2-2V2C12,0.9,12.9,0,14,0z"/>
	<path id="Rectangle_42" class="st0" d="M2,12h7c1.1,0,2,0.9,2,2v7c0,1.1-0.9,2-2,2H2c-1.1,0-2-0.9-2-2v-7C0,12.9,0.9,12,2,12z"/>
	<path id="Rectangle_43" class="st0" d="M14,12h7c1.1,0,2,0.9,2,2v7c0,1.1-0.9,2-2,2h-7c-1.1,0-2-0.9-2-2v-7C12,12.9,12.9,12,14,12z
		"/>
</g>
</svg>
