<?xml version="1.0" encoding="utf-8"?>
<!-- Generator: Adobe Illustrator 25.1.0, SVG Export Plug-In . SVG Version: 6.00 Build 0)  -->
<svg version="1.1" id="Calque_1" xmlns="http://www.w3.org/2000/svg" xmlns:xlink="http://www.w3.org/1999/xlink" x="0px" y="0px"
	 viewBox="0 0 23 23" style="enable-background:new 0 0 23 23;" xml:space="preserve">
<style type="text/css">
	.st0{fill:#A8977A;}
</style>
<g>
	<path id="Rectangle_47" class="st0" d="M1,0h5c0.6,0,1,0.4,1,1v5c0,0.6-0.4,1-1,1H1C0.4,7,0,6.6,0,6V1C0,0.4,0.4,0,1,0z"/>
	<path id="Rectangle_52" class="st0" d="M9,0h5c0.6,0,1,0.4,1,1v5c0,0.6-0.4,1-1,1H9C8.4,7,8,6.6,8,6V1C8,0.4,8.4,0,9,0z"/>
	<path id="Rectangle_55" class="st0" d="M17,0h5c0.6,0,1,0.4,1,1v5c0,0.6-0.4,1-1,1h-5c-0.6,0-1-0.4-1-1V1C16,0.4,16.4,0,17,0z"/>
	<path id="Rectangle_48" class="st0" d="M1,8h5c0.6,0,1,0.4,1,1v5c0,0.6-0.4,1-1,1H1c-0.6,0-1-0.4-1-1V9C0,8.4,0.4,8,1,8z"/>
	<path id="Rectangle_50" class="st0" d="M9,8h5c0.6,0,1,0.4,1,1v5c0,0.6-0.4,1-1,1H9c-0.6,0-1-0.4-1-1V9C8,8.4,8.4,8,9,8z"/>
	<path id="Rectangle_53" class="st0" d="M17,8h5c0.6,0,1,0.4,1,1v5c0,0.6-0.4,1-1,1h-5c-0.6,0-1-0.4-1-1V9C16,8.4,16.4,8,17,8z"/>
	<path id="Rectangle_49" class="st0" d="M1,16h5c0.6,0,1,0.4,1,1v5c0,0.6-0.4,1-1,1H1c-0.6,0-1-0.4-1-1v-5C0,16.4,0.4,16,1,16z"/>
	<path id="Rectangle_51" class="st0" d="M9,16h5c0.6,0,1,0.4,1,1v5c0,0.6-0.4,1-1,1H9c-0.6,0-1-0.4-1-1v-5C8,16.4,8.4,16,9,16z"/>
	<path id="Rectangle_54" class="st0" d="M17,16h5c0.6,0,1,0.4,1,1v5c0,0.6-0.4,1-1,1h-5c-0.6,0-1-0.4-1-1v-5C16,16.4,16.4,16,17,16z
		"/>
</g>
</svg>
