<?xml version="1.0" encoding="utf-8"?>
<!-- Generator: Adobe Illustrator 25.1.0, SVG Export Plug-In . SVG Version: 6.00 Build 0)  -->
<svg version="1.1" id="Calque_1" xmlns="http://www.w3.org/2000/svg" xmlns:xlink="http://www.w3.org/1999/xlink" x="0px" y="0px"
	 viewBox="0 0 31 23" style="enable-background:new 0 0 31 23;" xml:space="preserve">
<style type="text/css">
	.st0{fill:#897047;}
</style>
<g id="Groupe_1317" transform="translate(0.495)">
	<path id="Rectangle_47" class="st0" d="M0.5,0h5c0.6,0,1,0.4,1,1v5c0,0.6-0.4,1-1,1h-5c-0.6,0-1-0.4-1-1V1C-0.5,0.4,0,0,0.5,0z"/>
	<path id="Rectangle_52" class="st0" d="M8.5,0h5c0.6,0,1,0.4,1,1v5c0,0.6-0.4,1-1,1h-5c-0.6,0-1-0.4-1-1V1C7.5,0.4,8,0,8.5,0z"/>
	<path id="Rectangle_55" class="st0" d="M16.5,0h5c0.6,0,1,0.4,1,1v5c0,0.6-0.4,1-1,1h-5c-0.6,0-1-0.4-1-1V1C15.5,0.4,16,0,16.5,0z"
		/>
	<path id="Rectangle_68" class="st0" d="M24.5,0h5c0.6,0,1,0.4,1,1v5c0,0.6-0.4,1-1,1h-5c-0.6,0-1-0.4-1-1V1C23.5,0.4,24,0,24.5,0z"
		/>
	<path id="Rectangle_48" class="st0" d="M0.5,8h5c0.6,0,1,0.4,1,1v5c0,0.6-0.4,1-1,1h-5c-0.6,0-1-0.4-1-1V9C-0.5,8.4,0,8,0.5,8z"/>
	<path id="Rectangle_50" class="st0" d="M8.5,8h5c0.6,0,1,0.4,1,1v5c0,0.6-0.4,1-1,1h-5c-0.6,0-1-0.4-1-1V9C7.5,8.4,8,8,8.5,8z"/>
	<path id="Rectangle_53" class="st0" d="M16.5,8h5c0.6,0,1,0.4,1,1v5c0,0.6-0.4,1-1,1h-5c-0.6,0-1-0.4-1-1V9C15.5,8.4,16,8,16.5,8z"
		/>
	<path id="Rectangle_69" class="st0" d="M24.5,8h5c0.6,0,1,0.4,1,1v5c0,0.6-0.4,1-1,1h-5c-0.6,0-1-0.4-1-1V9C23.5,8.4,24,8,24.5,8z"
		/>
	<path id="Rectangle_49" class="st0" d="M0.5,16h5c0.6,0,1,0.4,1,1v5c0,0.6-0.4,1-1,1h-5c-0.6,0-1-0.4-1-1v-5C-0.5,16.4,0,16,0.5,16
		z"/>
	<path id="Rectangle_51" class="st0" d="M8.5,16h5c0.6,0,1,0.4,1,1v5c0,0.6-0.4,1-1,1h-5c-0.6,0-1-0.4-1-1v-5C7.5,16.4,8,16,8.5,16z
		"/>
	<path id="Rectangle_54" class="st0" d="M16.5,16h5c0.6,0,1,0.4,1,1v5c0,0.6-0.4,1-1,1h-5c-0.6,0-1-0.4-1-1v-5
		C15.5,16.4,16,16,16.5,16z"/>
	<path id="Rectangle_70" class="st0" d="M24.5,16h5c0.6,0,1,0.4,1,1v5c0,0.6-0.4,1-1,1h-5c-0.6,0-1-0.4-1-1v-5
		C23.5,16.4,24,16,24.5,16z"/>
</g>
</svg>
