<?xml version="1.0" encoding="utf-8"?>
<!-- Generator: Adobe Illustrator 25.1.0, SVG Export Plug-In . SVG Version: 6.00 Build 0)  -->
<svg version="1.1" id="Calque_1" xmlns="http://www.w3.org/2000/svg" xmlns:xlink="http://www.w3.org/1999/xlink" x="0px" y="0px"
	 viewBox="0 0 14 14" style="enable-background:new 0 0 14 14;" xml:space="preserve">
<style type="text/css">
	.st0{fill:none;}
	.st1{fill:#A8977A;}
</style>
<circle class="st0" cx="7" cy="7" r="7"/>
<path class="st1" d="M7,0C3.1,0,0,3.1,0,7s3.1,7,7,7s7-3.1,7-7S10.9,0,7,0z M10.3,9.5c0.2,0.2,0.2,0.6,0,0.8
	c-0.1,0.1-0.3,0.2-0.4,0.2s-0.3-0.1-0.4-0.2L7,7.8l-2.5,2.5c-0.1,0.1-0.3,0.2-0.4,0.2c-0.1,0-0.3-0.1-0.4-0.2
	c-0.2-0.2-0.2-0.6,0-0.8L6.2,7L3.7,4.5c-0.2-0.2-0.2-0.6,0-0.8s0.6-0.2,0.8,0L7,6.2l2.5-2.5c0.2-0.2,0.6-0.2,0.8,0
	c0.2,0.2,0.2,0.6,0,0.8L7.8,7L10.3,9.5z"/>
</svg>
